<svg id="Layer_1" data-name="Layer 1" xmlns="http://www.w3.org/2000/svg" viewBox="0 0 256 256"><defs><style>.cls-1{fill:#091f42;}.cls-2{fill:#c2c9d1;}.cls-3{fill:#1e58b1;}.cls-4{fill:#3a70c4;}</style></defs><g id="icon-256x256.psd"><rect class="cls-1" width="256" height="256"/><path class="cls-2" d="M72.4,161h1.91v20.54H85.1v1.74H72.4Z"/><path class="cls-2" d="M96.7,166.72c4.91,0,7.62,3.91,7.62,8.55v.47H90.83c.16,3.51,2.5,6.41,6.27,6.41a7.17,7.17,0,0,0,5.32-2.23l.9,1.13A8.34,8.34,0,0,1,97,183.66c-4.71,0-8.08-3.51-8.08-8.49C88.92,170.5,92.23,166.72,96.7,166.72Zm-5.87,7.65h11.72c0-2.74-1.84-6.14-5.88-6.14C92.86,168.23,91,171.57,90.83,174.37Z"/><path class="cls-2" d="M120.27,181.35a7,7,0,0,1-5.48,2.31,5.41,5.41,0,0,1-5.65-5.38c0-3.51,2.84-5.31,5.65-5.31a7,7,0,0,1,5.48,2.27V172c0-2.38-1.94-3.71-4.35-3.71a6.27,6.27,0,0,0-5,2.37l-1-1.17a7.73,7.73,0,0,1,6.18-2.74c3.31,0,5.91,1.57,5.91,5.18v11.36h-1.73Zm0-4.81a6.07,6.07,0,0,0-4.88-2.24c-2.67,0-4.41,1.74-4.41,4s1.74,4,4.41,4a6,6,0,0,0,4.88-2.21Z"/><path class="cls-2" d="M129.79,186a6.14,6.14,0,0,0,5.34,2.27c2.94,0,5.51-1.47,5.51-5.18v-2.54a7,7,0,0,1-5.61,3c-4.27,0-7.21-3.24-7.21-8.42s2.94-8.45,7.21-8.45a6.89,6.89,0,0,1,5.61,3v-2.61h1.78v16c0,4.94-3.35,6.71-7.29,6.71-2.7,0-4.44-.5-6.34-2.44Zm10.85-14.8a6.48,6.48,0,0,0-5.31-2.94c-3.57,0-5.64,3-5.64,6.88s2.07,6.85,5.64,6.85a6.48,6.48,0,0,0,5.31-2.94Z"/><path class="cls-2" d="M160,180.88a8.19,8.19,0,0,1-5.81,2.78c-3.31,0-5.08-1.54-5.08-5.18V167.12h1.74v11c0,3.14,1.57,4,3.91,4a7,7,0,0,0,5.24-2.67v-12.3h1.74v16.14H160Z"/><path class="cls-2" d="M175.31,166.72c4.91,0,7.62,3.91,7.62,8.55v.47h-13.5c.17,3.51,2.51,6.41,6.28,6.41a7.15,7.15,0,0,0,5.31-2.23l.91,1.13a8.34,8.34,0,0,1-6.32,2.61c-4.71,0-8.08-3.51-8.08-8.49C167.53,170.5,170.84,166.72,175.31,166.72Zm-5.88,7.65h11.73c0-2.74-1.84-6.14-5.88-6.14C171.47,168.23,169.57,171.57,169.43,174.37Z"/><path class="cls-2" d="M93.66,207.71H86.38V206h16.5v1.73H95.6v20.55H93.66Z"/><path class="cls-2" d="M115.51,226.35a7,7,0,0,1-5.48,2.31,5.4,5.4,0,0,1-5.64-5.38c0-3.51,2.83-5.31,5.64-5.31a7,7,0,0,1,5.48,2.27V217c0-2.38-1.94-3.71-4.34-3.71a6.28,6.28,0,0,0-5,2.37l-1-1.17a7.73,7.73,0,0,1,6.18-2.74c3.31,0,5.91,1.57,5.91,5.18v11.36h-1.73Zm0-4.81a6.07,6.07,0,0,0-4.88-2.24c-2.67,0-4.41,1.74-4.41,4s1.74,4,4.41,4a6,6,0,0,0,4.88-2.21Z"/><path class="cls-2" d="M123.94,206h1.73v8.75a6.9,6.9,0,0,1,5.62-3c4.3,0,7.21,3.38,7.21,8.49s-2.94,8.45-7.21,8.45a6.89,6.89,0,0,1-5.62-3v2.58h-1.73ZM131,227.09c3.6,0,5.64-3,5.64-6.88s-2-6.92-5.64-6.92a6.61,6.61,0,0,0-5.32,2.94v8A6.54,6.54,0,0,0,131,227.09Z"/><path class="cls-2" d="M144.42,206h1.73v22.28h-1.73Z"/><path class="cls-2" d="M159.73,211.72c4.91,0,7.62,3.91,7.62,8.55v.47h-13.5c.17,3.51,2.51,6.41,6.28,6.41a7.15,7.15,0,0,0,5.31-2.23l.91,1.13a8.34,8.34,0,0,1-6.32,2.61c-4.71,0-8.08-3.51-8.08-8.49C152,215.5,155.26,211.72,159.73,211.72Zm-5.88,7.65h11.73c0-2.74-1.84-6.14-5.88-6.14C155.89,213.23,154,216.57,153.85,219.37Z"/></g><g id="_Group_" data-name="&lt;Group&gt;"><polygon class="cls-3" points="128 96.88 114.13 83 141.88 83 128 96.88"/><polygon class="cls-4" points="128 69.13 141.88 83 114.13 83 128 69.13"/><polyline class="cls-3" points="155.75 83 128 110.75 100.25 83 72.5 83 128 138.5 183.5 83"/><polygon class="cls-4" points="128 55.25 128 27.5 183.5 83 155.75 83 128 55.25"/></g></svg>